<svg width="164" height="24" viewBox="0 0 164 24" fill="none" xmlns="http://www.w3.org/2000/svg">
<path d="M17.959 5.23145H11.4258V23H7.03125V5.23145H0.585938V1.67188H17.959V5.23145ZM28.1396 11.1201C27.5635 11.042 27.0557 11.0029 26.6162 11.0029C25.0146 11.0029 23.9648 11.5449 23.4668 12.6289V23H19.2334V7.15039H23.2324L23.3496 9.04004C24.1992 7.58496 25.376 6.85742 26.8799 6.85742C27.3486 6.85742 27.7881 6.9209 28.1982 7.04785L28.1396 11.1201ZM38.9355 23C38.7402 22.6191 38.5986 22.1455 38.5107 21.5791C37.4854 22.7217 36.1523 23.293 34.5117 23.293C32.959 23.293 31.6699 22.8438 30.6445 21.9453C29.6289 21.0469 29.1211 19.9141 29.1211 18.5469C29.1211 16.8672 29.7412 15.5781 30.9814 14.6797C32.2314 13.7812 34.0332 13.3271 36.3867 13.3174H38.335V12.4092C38.335 11.6768 38.1445 11.0908 37.7637 10.6514C37.3926 10.2119 36.8018 9.99219 35.9912 9.99219C35.2783 9.99219 34.7168 10.1631 34.3066 10.5049C33.9062 10.8467 33.7061 11.3154 33.7061 11.9111H29.4727C29.4727 10.9932 29.7559 10.1436 30.3223 9.3623C30.8887 8.58105 31.6895 7.9707 32.7246 7.53125C33.7598 7.08203 34.9219 6.85742 36.2109 6.85742C38.1641 6.85742 39.7119 7.35059 40.8545 8.33691C42.0068 9.31348 42.583 10.6904 42.583 12.4678V19.3379C42.5928 20.8418 42.8027 21.9795 43.2129 22.751V23H38.9355ZM35.4346 20.0557C36.0596 20.0557 36.6357 19.9189 37.1631 19.6455C37.6904 19.3623 38.0811 18.9863 38.335 18.5176V15.793H36.7529C34.6338 15.793 33.5059 16.5254 33.3691 17.9902L33.3545 18.2393C33.3545 18.7666 33.54 19.2012 33.9111 19.543C34.2822 19.8848 34.79 20.0557 35.4346 20.0557ZM46.9922 23V10.2559H44.6338V7.15039H46.9922V5.80273C46.9922 4.02539 47.5 2.64844 48.5156 1.67188C49.541 0.685547 50.9717 0.192383 52.8076 0.192383C53.3936 0.192383 54.1113 0.290039 54.9609 0.485352L54.917 3.7666C54.5654 3.67871 54.1357 3.63477 53.6279 3.63477C52.0361 3.63477 51.2402 4.38184 51.2402 5.87598V7.15039H56.4551V6.41797C56.4746 4.42578 57.085 2.89258 58.2861 1.81836C59.4971 0.734375 61.2012 0.192383 63.3984 0.192383C64.707 0.192383 66.3135 0.480469 68.2178 1.05664L67.6025 4.55762C66.6455 4.27441 65.8984 4.09375 65.3613 4.01562C64.834 3.92773 64.2676 3.88379 63.6621 3.88379C61.6895 3.88379 60.7031 4.75781 60.7031 6.50586V7.15039H63.8232V10.2559H60.7031V23H56.4551V10.2559H51.2402V23H46.9922ZM70.1807 23H65.9326V7.15039H70.1807V23ZM80.2881 19.8799C81.0693 19.8799 81.7041 19.665 82.1924 19.2354C82.6807 18.8057 82.9346 18.2344 82.9541 17.5215H86.9238C86.9141 18.5957 86.6211 19.582 86.0449 20.4805C85.4688 21.3691 84.6777 22.0625 83.6719 22.5605C82.6758 23.0488 81.5723 23.293 80.3613 23.293C78.0957 23.293 76.3086 22.5752 75 21.1396C73.6914 19.6943 73.0371 17.7021 73.0371 15.1631V14.8848C73.0371 12.4434 73.6865 10.4951 74.9854 9.04004C76.2842 7.58496 78.0664 6.85742 80.332 6.85742C82.3145 6.85742 83.9014 7.42383 85.0928 8.55664C86.2939 9.67969 86.9043 11.1787 86.9238 13.0537H82.9541C82.9346 12.2334 82.6807 11.5693 82.1924 11.0615C81.7041 10.5439 81.0596 10.2852 80.2588 10.2852C79.2725 10.2852 78.5254 10.6465 78.0176 11.3691C77.5195 12.082 77.2705 13.2441 77.2705 14.8555V15.2949C77.2705 16.9258 77.5195 18.0977 78.0176 18.8105C78.5156 19.5234 79.2725 19.8799 80.2881 19.8799ZM95.6104 22.502C97.0459 22.502 98.2275 22.1211 99.1553 21.3594C100.093 20.5977 100.605 19.543 100.693 18.1953H101.484C101.406 19.7285 100.815 20.9639 99.7119 21.9014C98.6084 22.8291 97.2412 23.293 95.6104 23.293C93.6279 23.293 92.0508 22.5752 90.8789 21.1396C89.7168 19.7041 89.1357 17.7559 89.1357 15.2949V14.7676C89.1357 12.3652 89.7168 10.4463 90.8789 9.01074C92.0508 7.5752 93.6182 6.85742 95.5811 6.85742C97.2607 6.85742 98.6475 7.36035 99.7412 8.36621C100.835 9.37207 101.416 10.71 101.484 12.3799H100.693C100.625 10.9541 100.122 9.81152 99.1846 8.95215C98.2568 8.08301 97.0557 7.64844 95.5811 7.64844C93.8135 7.64844 92.4268 8.28809 91.4209 9.56738C90.4248 10.8369 89.9268 12.6045 89.9268 14.8701V15.3828C89.9268 17.5996 90.4297 19.3428 91.4355 20.6123C92.4512 21.8721 93.8428 22.502 95.6104 22.502ZM106.26 10.8418C106.777 9.61133 107.539 8.63965 108.545 7.92676C109.551 7.21387 110.664 6.85742 111.885 6.85742C113.584 6.85742 114.844 7.34082 115.664 8.30762C116.494 9.26465 116.914 10.7148 116.924 12.6582V23H116.133V12.6289C116.123 10.9297 115.776 9.6748 115.093 8.86426C114.409 8.04395 113.325 7.63379 111.841 7.63379C110.474 7.63379 109.287 8.12207 108.281 9.09863C107.285 10.0654 106.611 11.3154 106.26 12.8486V23H105.469V0.5H106.26V10.8418ZM127.603 23.293C126.323 23.293 125.146 22.9512 124.072 22.2676C123.008 21.5742 122.173 20.627 121.567 19.4258C120.962 18.2246 120.659 16.8916 120.659 15.4268V14.7676C120.659 13.3027 120.952 11.96 121.538 10.7393C122.124 9.51855 122.93 8.56641 123.955 7.88281C124.98 7.19922 126.099 6.85742 127.31 6.85742C129.077 6.85742 130.522 7.4873 131.646 8.74707C132.769 10.0068 133.33 11.6621 133.33 13.7129V14.5479H121.45V15.4121C121.45 16.7012 121.719 17.8975 122.256 19.001C122.803 20.0947 123.55 20.9541 124.497 21.5791C125.454 22.2041 126.489 22.5166 127.603 22.5166C128.667 22.5166 129.57 22.3408 130.312 21.9893C131.064 21.6279 131.729 21.0762 132.305 20.334L132.861 20.7295C131.68 22.4385 129.927 23.293 127.603 23.293ZM127.31 7.64844C125.767 7.64844 124.458 8.22461 123.384 9.37695C122.31 10.5195 121.68 11.9795 121.494 13.7568H132.539V13.5664C132.539 12.4922 132.31 11.4961 131.851 10.5781C131.401 9.65039 130.776 8.93262 129.976 8.4248C129.185 7.90723 128.296 7.64844 127.31 7.64844ZM142.397 22.502C143.833 22.502 145.015 22.1211 145.942 21.3594C146.88 20.5977 147.393 19.543 147.48 18.1953H148.271C148.193 19.7285 147.603 20.9639 146.499 21.9014C145.396 22.8291 144.028 23.293 142.397 23.293C140.415 23.293 138.838 22.5752 137.666 21.1396C136.504 19.7041 135.923 17.7559 135.923 15.2949V14.7676C135.923 12.3652 136.504 10.4463 137.666 9.01074C138.838 7.5752 140.405 6.85742 142.368 6.85742C144.048 6.85742 145.435 7.36035 146.528 8.36621C147.622 9.37207 148.203 10.71 148.271 12.3799H147.48C147.412 10.9541 146.909 9.81152 145.972 8.95215C145.044 8.08301 143.843 7.64844 142.368 7.64844C140.601 7.64844 139.214 8.28809 138.208 9.56738C137.212 10.8369 136.714 12.6045 136.714 14.8701V15.3828C136.714 17.5996 137.217 19.3428 138.223 20.6123C139.238 21.8721 140.63 22.502 142.397 22.502ZM155.376 14.4307L155.347 14.46L153.047 16.4375V23H152.256V0.5H153.047V15.5732L154.907 13.8154L162.114 7.15039H163.242L155.962 13.9033L163.696 23H162.671L155.376 14.4307Z" fill="#0E0E0E"/>
</svg>
